# xmcd
#
# Track frame offsets: 
#        150
#        11690
#        21367
#        33727
#        46652
#        59322
#        70400
#        81542
#        92502
#        106587
#
# Disc length: 1552 seconds
#
# Revision: 0
# Processed by: cddbd v1.5.1PL2 Copyright (c) Steve Scherf et al.
# Submitted via: ExactAudioCopy v0.95b3
#
DISCID=7b060e0a
DTITLE=Monroe Brothers - All American Country
DYEAR=1900
DGENRE=Country
TTITLE0=Orange Blossom Special
TTITLE1=Darling Corey
TTITLE2=Mule Skinner Blues
TTITLE3=The Saints Go Marching In
TTITLE4=Back Up And Push
TTITLE5=Roll In My Sweet Baby's Arms
TTITLE6=My Long Journey Home
TTITLE7=Will The Circle Be Unbroken?
TTITLE8=Just A Song Of Old Kentucky
TTITLE9=Nine-Pound Hammer Is Too Heavy
EXTD=
EXTT0=
EXTT1=
EXTT2=
EXTT3=
EXTT4=
EXTT5=
EXTT6=
EXTT7=
EXTT8=
EXTT9=
PLAYORDER=
